<svg width="1234" height="626" viewBox="0 0 1234 626" fill="none" xmlns="http://www.w3.org/2000/svg">
<path fill-rule="evenodd" clip-rule="evenodd" d="M430.368 3.26575C416.042 5.23707 402.48 7.99045 397.271 9.98529C392.417 11.8434 383.15 14.8643 376.678 16.699C366.284 19.6449 365.326 20.1962 368.471 21.4178C370.795 22.3204 371.434 23.1701 370.31 23.8639C366.911 25.9631 368.568 27.933 372.928 26.976C384.918 24.3431 395.065 29.0634 395.065 37.2721C395.065 40.7267 396.055 42.9215 398.335 44.5165C401.021 46.3981 401.152 46.8053 399.07 46.8053C396.133 46.8053 395.803 48.4253 398.246 50.867C399.547 52.1665 398.929 52.9663 395.675 54.2026C382.151 59.3418 381.751 81.1777 395.056 87.962C404.522 92.7881 409.562 89.851 424.837 70.6096C426.245 68.8368 428.944 67.3858 430.834 67.3858C432.726 67.3858 442.228 64.4619 451.951 60.8883C461.674 57.3146 472.528 53.6116 476.07 52.6575C481.764 51.1258 482.217 50.7083 479.976 49.0706C476.067 46.2144 476.909 45.544 483.322 46.404C490.395 47.3522 491.126 45.0633 485.233 40.4298L481.26 37.3074L487.631 36.2196C497.27 34.5761 501.368 31.364 500.259 26.3218C499.113 21.1017 504.853 15.8552 515.62 12.28C525.662 8.94745 526.999 6.40722 518.004 7.75525C512.078 8.64315 509.98 8.20655 503.452 4.72256C492.705 -1.01205 465.4 -1.55597 430.368 3.26575ZM363.439 4.27567C345.766 5.01363 335.25 6.09852 331.814 7.53768C328.982 8.72253 323.575 10.1367 319.799 10.6806C306.404 12.6078 308.505 18.6188 322.716 19.0319L328.136 19.1892L322.252 20.4005C319.016 21.0664 312.562 22.0352 307.911 22.5541C300.195 23.4141 299.453 23.8095 299.453 27.0657C299.453 30.607 299.569 30.6349 314.162 30.6349C331.187 30.6349 334.842 27.8036 318.207 27.5023L307.543 27.3082L315.633 26.0058C336.341 22.6688 341.831 21.334 347.994 18.1367C351.635 16.2477 358.254 14.2807 362.704 13.7662C369.808 12.9445 394.931 7.92724 400.907 6.13527C404.464 5.06802 399.581 2.71008 394.329 2.95852C391.902 3.07318 378.002 3.6656 363.439 4.27567ZM796.636 10.5174C796.636 14.4571 815.485 18.6071 816.784 14.9526C817.163 13.8853 814.179 12.5696 808.892 11.473C804.214 10.5027 799.544 9.38552 798.513 8.99008C797.48 8.59317 796.636 9.28115 796.636 10.5174ZM596.954 12.6167C585.417 13.165 580.533 17.4046 591.438 17.4046C596.395 17.4046 598.179 19.1877 595.115 21.0797C594.306 21.5795 593.644 22.6232 593.644 23.3994C593.644 25.4383 601.046 23.3068 605.603 19.9566C608.74 17.6501 610.06 17.4281 612.59 18.7805C615.104 20.1241 615.708 20.033 615.708 18.3086C615.708 17.1253 617.682 15.7346 620.121 15.1995C622.548 14.6674 624.534 13.6222 624.534 12.8783C624.534 11.5729 619.824 11.5274 596.954 12.6167ZM832.941 22.9128C831.062 24.79 826.97 25.7059 817.697 26.3203C806.206 27.0833 804.728 27.5302 801.877 31.1039C799.265 34.3762 797.557 35.045 791.799 35.045C783.864 35.045 783.177 36.2063 788.913 39.9285C793.148 42.6745 792.52 42.6877 783.252 40.0446C780.591 39.2861 780.31 39.6213 781.216 42.4731C782.079 45.1912 781.819 45.6087 779.752 44.8164C778.371 44.2857 775.542 43.4272 773.467 42.9068L769.692 41.9601L772.5 45.8145C774.043 47.9358 778.142 50.7774 781.607 52.1313C785.071 53.4837 788.296 55.2213 788.771 55.9901C789.247 56.7589 788.176 56.6075 786.391 55.6535C784.606 54.698 783.005 54.1364 782.834 54.4039C782.662 54.6715 781.732 56.7281 780.766 58.9743C778.784 63.5814 775.787 65.2264 772.008 63.7769C769.71 62.8963 769.807 62.5186 772.943 60.1547C775.016 58.5921 775.819 57.1309 774.911 56.5708C774.07 56.0504 771.313 51.9652 768.788 47.4904C763.333 37.8322 757.72 34.3629 754.552 38.6922C751.532 42.82 752.051 46.5231 756.185 50.3511C761.202 54.9978 760.817 55.6197 754.346 53.3117C747.14 50.7421 737.99 50.7891 733.385 53.4205C731.089 54.7318 725.395 55.5403 718.229 55.5741C708.418 55.6182 705.962 56.1651 701.314 59.3418L695.875 63.0581L692.729 59.1536C689.2 54.7773 685.335 55.4609 687.781 60.0283C689.877 63.9415 689.669 64.4428 685.946 64.4678C681.879 64.4958 679.776 65.8526 678.517 69.2601C677.811 71.1697 676.596 71.6284 673.976 70.9713C671.257 70.2892 670.275 70.7155 669.882 72.7471C669.445 75.0153 668.476 74.5934 663.5 69.9731L657.631 64.5252L665.45 64.4855C679.151 64.4164 682.825 60.4252 672.708 56.6031C633.851 41.9277 612.321 44.3974 591.645 65.907C586.904 70.8375 580.118 76.2369 576.568 77.9054C563.944 83.8356 567.761 99.1974 580.98 95.6708C588.304 93.7171 589.739 94.7094 592.18 103.43C593.195 107.053 594.635 110.017 595.38 110.017C603.558 110.017 613.493 94.3596 609.042 88.4853C603.938 81.7525 620.548 63.993 629.019 67.1256C631.821 68.1606 631.612 68.6221 626.078 73.5865C614.96 83.5621 619.93 91.8414 636.088 90.2582C646.959 89.1938 646.25 91.565 635.198 93.235C629.248 94.1346 626.979 96.8674 630.418 98.9916C634.479 101.501 631.874 104.204 627.549 101.97C621.413 98.7976 620.642 99.1078 621.248 104.504C622.278 113.677 619.649 115.04 600.791 115.105L584.083 115.162L584.583 108.179C584.859 104.316 584.448 101.197 583.661 101.197C580.872 101.197 578.199 106.142 578.199 111.3C578.199 115.049 577.362 116.978 575.257 118.076C573.639 118.919 569.336 121.38 565.696 123.543C554.615 130.127 550.46 131.299 551.436 127.565C551.986 125.466 550.685 122.421 547.398 118.121C544.733 114.63 542.084 109.891 541.512 107.587C540.454 103.334 535.32 96.7866 533.042 96.7866C529.203 96.7866 528.909 104.694 532.552 109.949C536.777 116.043 537.294 120.573 534.07 123.247C527.947 128.326 531.274 131.915 542.528 132.37L553.193 132.803L548.044 136.141C545.213 137.977 541.241 139.851 539.219 140.306C531.236 142.102 531.065 142.346 535.382 145.786C538.501 148.27 539.694 150.721 540.269 155.814C541.235 164.389 540.335 164.918 525.144 164.696C511.401 164.497 511.96 164.011 510.439 177.455C508.899 191.051 509.927 193.236 519.237 196.168C531.08 199.899 538.28 195.804 550.186 178.563C558.784 166.114 559.057 165.878 564.982 165.878C568.301 165.878 572.302 164.907 573.873 163.72C578.052 160.561 581.5 160.998 584.136 165.017C586.392 168.458 607.237 186.459 608.965 186.459C613.166 186.459 608.968 176.996 601.734 170.159C587.945 157.126 591.417 152.789 606.909 163.692C614.893 169.311 617.245 172.055 622.275 181.622C628.675 193.8 629.878 194.867 633.895 191.932C636.187 190.257 636.281 189.49 634.631 185.871C632.954 182.196 633.066 181.489 635.613 179.628C640.403 176.127 644.137 177.712 645.585 183.855C648.086 194.472 654.695 198.219 670.921 198.219H684.843V204.573C684.843 208.067 683.837 213.878 682.606 217.485L680.37 224.046L665.322 223.454C653.147 222.975 648.249 222.059 639.651 218.656C627.622 213.896 625.049 214.232 623.319 220.795C621.683 226.992 618.665 226.691 600.263 218.495L585.554 211.943L585.502 205.818C585.402 194.153 573.429 192.854 543.87 201.302C538.484 202.841 531.761 204.115 528.926 204.136C520.576 204.195 510.466 212.636 505.151 223.986C502.686 229.25 499.541 233.756 497.989 234.248C489.637 236.897 471.35 265.845 474.414 271.568C476.613 275.672 476.312 285.916 473.745 294.373C470.242 305.911 470.803 308.989 477.565 315.331C480.872 318.431 484.574 323.424 485.793 326.426C489.556 335.688 506.1 348.657 512.643 347.472C515.529 346.95 522.192 346.312 527.451 346.053C533.195 345.771 539.654 344.351 543.631 342.495C553.151 338.054 558.745 338.387 563.185 343.66C565.996 346.999 568.268 348.081 573.211 348.438C581.151 349.01 583.706 352.86 581.637 361.132C578.118 375.194 578.267 376.436 584.353 383.797C596.368 398.328 600.472 419.596 594.379 435.771C589.447 448.866 589.622 456.065 595.125 466.52C597.558 471.143 603.282 486.59 607.845 500.848C619.458 537.136 618.344 536.19 641.719 529.624C654.093 526.149 676.521 502.873 675.026 495.061C674.47 492.15 675.556 490.438 680.452 486.505C686.739 481.457 688.097 474.005 684.271 465.554C683.431 463.698 686.098 460.858 695.778 453.304C707.402 444.234 708.389 443.054 708.504 438.081C708.82 424.501 708.112 415.742 705.924 406.134L703.557 395.748L707.572 386.804C710.679 379.886 714.807 374.738 725.796 364.076C741.176 349.155 746.481 340.969 750.26 326.317C753.274 314.633 753.553 314.834 738.667 317.957C724.281 320.973 724.666 321.117 717.769 310.212C714.861 305.617 710.675 299.872 708.465 297.447C699.179 287.25 677.859 241.319 680.972 238.21C684.005 235.179 698.938 256.685 701.665 268.014C702.245 270.422 705.687 275.562 709.314 279.437C716.508 287.124 720.146 294.295 720.146 300.794C720.146 309.307 722.757 310.574 732.665 306.87C759.48 296.844 786.863 273.98 784.296 263.761C783.106 259.026 768.782 250.289 765.777 252.466C756.343 259.302 750.81 257.231 742.474 243.746C732.118 226.994 735.707 222.973 749.614 235.749C757.888 243.352 759.096 243.986 763.67 243.127C767.471 242.414 770.181 243.048 774.933 245.757C779.948 248.615 784.106 249.501 795.862 250.214C812.309 251.213 824.691 257.272 826.71 265.309C827.569 268.725 828.104 268.941 833.467 268.036L839.294 267.052L839.325 272.694C839.358 278.695 842.618 288.419 852.55 312.147C860.506 331.152 861.101 331.751 866.448 326.174C870.159 322.302 870.771 320.329 871.637 309.435C872.708 295.949 872.333 296.663 887.1 279.955C901.677 263.462 909.529 261.573 919.805 272.089C926.418 278.858 929.022 284.178 929.022 290.927C929.022 295.968 928.672 295.852 935.415 293.037C938.318 291.824 941.021 290.832 941.419 290.832C942.975 290.832 947.981 310.088 948.931 319.734C950.751 338.183 968.251 366.78 974.127 360.907C975.996 359.04 969.62 345.077 964.2 339.162C953.04 326.984 950.357 318.458 954.914 309.651L957.272 305.095L967.627 316.44L977.984 327.782L984.374 321.516C996.34 309.777 996.051 303.815 982.853 290.305C973.51 280.741 972.662 277.021 978.499 271.186C982.281 267.408 989.331 265.842 989.331 268.781C989.331 271.186 992.737 270.499 1004.17 265.789C1030.77 254.826 1036.2 234.647 1018.55 212.359C1012.13 204.252 1011.58 201.305 1015.81 197.484C1020.17 193.539 1019.45 192.536 1012.42 192.808C1006.5 193.037 998.141 189.509 998.167 186.793C998.198 183.476 1008.81 178.531 1010.61 180.992C1011.87 182.718 1014.17 183.375 1018.1 183.132C1022.94 182.835 1024.05 183.353 1025.68 186.668C1026.73 188.805 1029.27 190.975 1031.33 191.492C1033.97 192.154 1035.91 194.369 1037.89 199C1040.86 205.916 1043.87 207.186 1049.79 204.021C1052.48 202.579 1052.12 201.859 1044.48 193.364C1036.54 184.551 1036.3 184.044 1037.19 177.818C1038.55 168.31 1039.1 167.553 1044.97 167.062C1051.66 166.503 1057.52 157.345 1057.42 147.626C1057.26 132.66 1042.93 114.549 1033.97 117.987C1032.69 118.476 1028.79 117.445 1025.28 115.696L1018.92 112.517L1021.57 107.225C1023.02 104.313 1024.63 100.197 1025.14 98.0773C1026.28 93.3173 1030.19 92.3765 1048.78 92.3765H1062.27L1063.68 87.5989C1065.17 82.5449 1066.43 82.1935 1075.6 84.2795C1079.57 85.1836 1080.38 84.8675 1081.27 82.0759C1084.22 72.7897 1087.18 82.9918 1084.48 93.1277C1081.39 104.707 1081.22 104.335 1096.55 119.48C1108.36 131.14 1112.13 132.27 1108.76 123.133C1108.03 121.175 1107.74 117.125 1108.11 114.133C1108.72 109.214 1108.06 107.932 1101.28 100.76C1092.15 91.1152 1092.17 91.4753 1100.76 90.217C1109.82 88.8881 1118.63 84.9146 1122.97 80.1899L1126.44 76.4236L1120.4 73.3454C1114.12 70.1407 1113.35 68.9852 1115.85 66.4832C1116.86 65.4748 1121.14 65.9643 1129.05 67.9959C1138.08 70.3156 1141.15 70.6023 1142.5 69.2557C1145.54 66.2142 1141.44 63.4491 1132.37 62.4215C1127.72 61.8953 1112.12 58.77 1097.7 55.4771C1075.55 50.4187 1070.83 49.7527 1067.34 51.1934C1063.74 52.684 989.181 43.458 965.428 38.5819C962.389 37.9572 961.383 38.3217 961.383 40.0446C961.383 42.626 955.276 44.6576 951.672 43.2758C950.372 42.7774 946.737 43.139 943.593 44.0799C938.313 45.6616 937.152 45.422 928.264 40.9134C918.731 36.0785 912.437 35.3111 894.455 36.7958C886.539 37.45 862.829 36.3739 862.829 35.3625C862.829 34.7275 864.903 32.984 867.439 31.4875C873.321 28.0153 872.021 27.3023 854.003 24.1197C846.318 22.7629 839.013 21.3575 837.77 20.9988C836.527 20.6401 834.354 21.5016 832.941 22.9128ZM230.318 24.0947C230.318 28.0476 240.289 31.0642 250.623 30.2351C260.597 29.4339 263.121 28.3152 259.706 26.2057C258.403 25.4016 256.999 25.4324 256.145 26.2865C253.959 28.471 249.937 27.9668 243.94 24.7548C237.256 21.1752 230.318 20.8386 230.318 24.0947ZM937.848 27.6948C937.848 28.521 941.878 29.1546 947.041 29.1428C953.519 29.1267 955.583 28.6989 954.028 27.6948C951.113 25.8117 937.848 25.8117 937.848 27.6948ZM712.618 33.4015C706.438 39.5771 705.423 43.0964 709.482 44.2622C710.897 44.6694 713.183 45.4661 714.558 46.0335C716.713 46.9215 716.945 46.354 716.231 41.9498C715.445 37.1134 715.772 36.6165 722.186 32.8591C730.36 28.0726 730.468 27.6948 723.65 27.6948C719.43 27.6948 717.147 28.8753 712.618 33.4015ZM203.105 33.9013C196.927 36.0902 190.405 40.8884 191.406 42.5069C192.704 44.6061 199.089 44.1152 204.083 41.5352C207.024 40.0152 209.092 39.705 210.032 40.6444C212.445 43.0567 210.645 47.5095 207.05 48.021C205.192 48.2856 203.92 49.2471 204.223 50.1585C205.235 53.1912 213.272 54.0702 230.247 53.0045L247.054 51.9505L248.335 46.9935C250.52 38.5466 249.618 37.9851 233.861 37.9851C222.148 37.9851 219.947 37.6396 221.299 36.0123C224.662 31.9638 212.543 30.557 203.105 33.9013ZM267.862 35.9212C259.647 38.9274 258.576 40.4606 263.219 42.5731C266.761 44.1857 267.578 43.949 271.532 40.1637C278.553 33.4412 277.612 32.3549 267.862 35.9212ZM281.651 37.2119C278.902 39.2111 274.51 42.354 271.89 44.1945C266.64 47.8829 265.831 49.7454 269.479 49.7454C271.862 49.7454 289.68 37.7661 291.376 35.023C293.144 32.1637 286.548 33.6485 281.651 37.2119ZM314.162 36.0652C312.14 36.4063 308.999 38.4658 307.182 40.6429L303.88 44.6003L303.873 40.5577C303.864 35.8433 302.848 35.6448 295.825 38.9921C289.488 42.013 289.385 42.9671 295.04 46.304C300.712 49.6528 300.682 49.7601 292.773 54.5333C284.796 59.3492 284.271 59.4285 285.478 55.6255C286.848 51.3125 271.678 51.3874 263.561 55.7343C258.695 58.3407 256.242 58.6582 246.667 57.9203C232.331 56.8163 226.024 56.8163 213.769 57.9217C205.564 58.6612 203.84 58.4377 203.84 56.6325C203.84 52.268 190.422 50.7142 161.893 51.7755C138.643 52.6399 133.307 52.3944 120.169 49.8498C93.7481 44.7311 90.0457 44.6547 72.5781 48.8722C63.8921 50.9699 56.1578 52.6855 55.39 52.6855C49.9842 52.6855 46.529 55.6461 47.8587 59.1404C49.1517 62.5421 48.8825 62.7979 43.0575 63.6916C28.8569 65.8732 27.3256 66.3201 27.3256 68.284C27.3256 69.6865 29.1702 70.3259 33.2095 70.3259C42.6 70.3259 40.1053 72.5692 25.7135 77.066C7.54567 82.7419 2.21934 89.0777 11.1716 94.3625C16.5715 97.551 15.9728 98.7226 6.48217 103.528C-2.93784 108.298 -1.9067 109.514 8.37676 105.763C12.7308 104.174 27.1167 99.1048 40.3436 94.4977L64.3952 86.12L73.0209 88.7308C84.9636 92.3441 88.285 96.1486 86.9965 104.741C86.0565 111.003 86.2168 111.444 89.7589 112.332C94.1159 113.426 94.1556 113.751 91.3814 125.452C90.2325 130.303 89.6662 137.052 90.1252 140.45C90.9062 146.25 90.3164 147.569 80.4698 162.024L69.9834 177.421V190.844C69.9834 203.904 70.1025 204.374 74.4301 208.324C77.7691 211.372 79.2107 214.369 80.2227 220.368C82.6498 234.753 91.9933 258.491 95.2279 258.491C96.9416 258.491 96.9798 258.677 91.955 242.998C87.2494 228.317 86.9361 223.945 90.5915 223.945C91.9006 223.945 93.9482 227.198 95.7192 232.09C97.3402 236.571 100.322 242.794 102.344 245.919C113.028 262.426 112.79 261.848 111.916 269.104C110.621 279.853 135.822 296.801 149.634 294.47C154.646 293.623 155.773 293.976 158.297 297.184C159.943 299.275 165.7 302.59 171.6 304.842C177.319 307.027 182.326 309.664 182.725 310.703C183.123 311.743 184.811 312.948 186.473 313.382C188.828 313.998 189.297 314.958 188.601 317.73C187.57 321.839 189.432 323.802 199.636 329.36L206.466 333.079L211.022 330.196L215.579 327.312L217.098 331.309C222.21 344.744 221.351 350.984 212.647 363.625C208.371 369.837 207.588 372.329 207.132 381.196C206.267 398.033 206.475 399.373 210.954 405.881C213.312 409.306 217.622 416.595 220.531 422.075C228.389 436.88 232.689 441.762 241.563 445.957C255.206 452.408 254.755 450.664 258.317 510.602C260.38 545.298 263.424 563.667 268.02 569.149C271.799 573.655 272.455 578.849 269.858 583.695C268.482 586.266 268.754 587.176 271.529 589.268C273.737 590.932 274.287 592.114 273.175 592.801C263.083 599.034 290.959 626 307.496 626C315.871 626 315.821 625.318 306.807 616.445C299.155 608.912 297.998 605.261 301.706 600.361C304.872 596.177 304.351 592.576 300.188 589.849C295.603 586.847 295.577 584.201 300.057 576.802L303.59 570.971L299.822 566.512L296.055 562.053L301.566 561.589C306.501 561.173 306.988 560.772 306.228 557.739C305.492 554.809 306.251 554.018 311.86 551.878C322.28 547.9 323.151 545.057 317.742 532.653C317.35 531.752 319.84 531.372 324.176 531.674C332.543 532.253 332.259 532.529 341.284 515.012C347.101 503.718 347.963 500.962 347.166 496.18C346.011 489.238 354.34 480.172 364.347 477.479C375.719 474.42 378.822 468.2 381.754 442.6C382.751 433.891 384.121 430.034 389.203 421.628C398.026 407.034 398.647 392.264 390.437 392.264C389.761 392.264 386.171 389.949 382.462 387.119C377.141 383.06 374.365 381.974 369.317 381.974C364.895 381.974 359.938 380.421 353.276 376.952C347.974 374.189 341.247 371.141 338.328 370.18C334.18 368.811 333.185 367.814 333.761 365.611C336.222 356.204 326.064 344.032 314.187 342.156C306.259 340.904 304.702 339.963 291.321 328.341C283.359 321.426 282.294 320.958 272.413 320.035C266.655 319.497 258.8 318.57 254.956 317.974C248.115 316.914 247.969 316.973 247.969 320.767C247.969 326.389 245.52 325.52 244.389 319.497C242.883 311.472 236.606 313.178 226.873 324.256C222.825 328.863 222.411 329.01 219.883 326.722C217.831 324.867 215.676 324.519 210.78 325.252C199.389 326.959 195.962 322.693 197.228 308.387C198.402 295.134 197.321 293.772 185.631 293.772H178.997L182.459 286.054C187.901 273.923 188.465 269.334 184.636 268.334C179.517 266.996 174.664 269.763 172.328 275.353C167.3 287.377 150.259 285.482 146.673 272.502C145.24 267.312 147.723 250.035 151.074 241.897C153.769 235.349 164.519 229.932 175.105 229.79C179.987 229.724 185.914 228.852 188.275 227.852C191.402 226.528 193.758 226.45 196.952 227.563C199.364 228.402 203.212 229.09 205.503 229.09C208.64 229.09 209.836 229.906 210.348 232.398C213.415 247.333 214.645 251.141 216.404 251.141C219.697 251.141 220.403 248.383 220.245 236.133C220.056 221.593 221.916 217.697 231.536 212.464C241.259 207.176 247.706 199.644 248.9 192.182C249.539 188.195 250.256 186.869 251.068 188.177C251.97 189.63 254.182 188.145 259.654 182.416C264.054 177.809 268.293 174.699 270.17 174.699C271.952 174.699 275.632 172.177 278.662 168.882C285.954 160.948 297.982 155.875 297.982 160.733C297.982 163.425 297.259 163.435 308.527 160.57C324.665 156.464 327.343 153.482 316.369 151.837C309.187 150.76 308.876 150.292 311.504 144.526C314.886 137.108 307.59 136.542 295.232 143.262C291.153 145.48 289.499 145.923 290.702 144.473C294.531 139.862 305.179 134.89 312.909 134.103C343.871 130.955 364.464 119.327 340.151 118.721L335.491 118.605L339.536 117.129C344.329 115.38 344.668 113.642 340.639 111.487C338.164 110.162 337.697 108.409 337.697 100.41C337.697 89.6422 337.553 89.5511 328.51 94.6021C321.985 98.2463 321.846 98.2596 318.472 95.5282L315.051 92.7602L318.284 91.7341C325.409 89.4732 315.954 80.6162 306.416 80.6162C297.96 80.6162 286.47 92.4544 287.379 100.232C287.994 105.502 285.995 107.797 275.997 113.294C273.453 114.692 270.707 117.743 269.894 120.073C267.67 126.45 261.749 128.691 260.761 123.53C260.349 121.37 260.663 118.381 261.464 116.889C263.344 113.379 263.498 113.497 248.38 107.028C226.63 97.7245 230.247 89.3217 261.952 75.4931C268.639 72.5751 273.562 69.563 273.368 68.5075C273.14 67.2756 277.26 65.8276 285.612 64.2076C298.951 61.6174 303.865 58.7009 303.865 53.3764C303.865 50.0526 308.246 48.2754 316.439 48.2754C319.619 48.2754 328.872 54.6935 328.872 56.8986C328.872 60.1077 319.825 67.3858 315.836 67.3858C310.591 67.3858 306.807 68.6839 306.807 70.4832C306.807 71.205 308.52 71.796 310.613 71.796C312.704 71.796 317.173 73.7217 320.542 76.0752C329.056 82.0245 333.285 83.1255 333.285 79.396C333.285 77.0734 334.22 76.5501 338.065 76.725C342.749 76.9367 342.837 76.825 342.388 71.2212L341.931 65.5027L347.36 66.3833C360.94 68.5854 363.97 61.3396 351.373 56.7869C346.65 55.0802 344.81 52.6855 348.222 52.6855C350.607 52.6855 346.025 47.9123 336.844 40.834L329.073 34.8436L325.767 38.1483L322.458 41.4544L321.027 38.2497C320.24 36.4871 319.202 35.1347 318.718 35.2449C318.235 35.3552 316.185 35.7242 314.162 36.0652ZM482.338 71.23C486.888 75.4549 488.731 76.284 491.899 75.5284C512.768 70.5538 512.632 65.8996 491.623 65.9555L476.703 65.9952L482.338 71.23ZM522.303 112.936C515.223 115.688 508.955 127.674 514.617 127.635C520.652 127.596 525.072 124.229 526.193 118.822C527.426 112.87 526.414 111.34 522.303 112.936ZM1050.67 123.7C1055.17 131.05 1069.57 149.492 1069.94 148.375C1070.78 145.88 1062.97 132.259 1057.68 126.971C1052.57 121.867 1048.34 119.891 1050.67 123.7ZM337.897 136.41C329.991 145.78 330.171 146.724 339.904 146.988C344.354 147.11 348.822 147.275 349.833 147.356C353.14 147.62 352.906 139.788 349.553 137.995C347.887 137.104 346.523 135.113 346.523 133.573C346.523 128.348 343.998 129.179 337.897 136.41ZM1076.12 162.818C1076.12 164.369 1075.72 166.684 1075.22 167.963C1073.71 171.916 1087.29 171.207 1089.42 167.222C1091.34 163.639 1091.51 163.854 1085.09 161.686C1078.09 159.321 1076.12 159.569 1076.12 162.818ZM1079.06 176.724C1079.06 177.03 1080.02 179.564 1081.18 182.357C1084.72 190.818 1077.04 202.335 1067.87 202.335C1058.81 202.335 1055.46 207.867 1059.16 216.711L1061.44 222.188L1066.94 216.346C1070.37 212.7 1076.17 208.942 1082.37 206.346C1093.29 201.775 1094.22 199.758 1090.86 188.051C1088.9 181.221 1079.06 171.775 1079.06 176.724ZM205.367 261.063C205.464 262.992 235.437 276.202 235.987 274.56C236.668 272.532 233.034 269.82 222.36 264.386C214.287 260.277 205.238 258.507 205.367 261.063ZM1036.4 290.846C1036.4 299.175 1038.04 299.905 1042.02 293.35C1044.72 288.906 1043.29 284.621 1038.82 283.742C1036.83 283.349 1036.4 284.603 1036.4 290.846ZM873.126 332.482C873.126 339.537 873.885 340.994 876.947 339.819C880.51 338.453 878.902 326.112 875.16 326.112C873.741 326.112 873.126 328.04 873.126 332.482ZM1061.41 327.175C1060.19 327.631 1057.7 328.561 1055.86 329.241L1052.51 330.477L1056.4 336.356C1060.87 343.094 1062.15 342.955 1063.53 335.579C1064.08 332.683 1064.89 329.369 1065.33 328.213C1066.17 326.03 1065.16 325.763 1061.41 327.175ZM1017.46 347.59C1012.22 353.024 1005.26 358.562 1001.65 360.154C994.297 363.407 994.488 362.824 997.48 372.89C1000.21 382.097 1003.83 384.801 1014.92 385.946L1023.09 386.788L1026.07 379.603C1027.71 375.651 1029.71 371.271 1030.52 369.867C1032.49 366.443 1032.38 359.444 1030.28 354.833C1028.8 351.607 1029.01 350.593 1031.76 347.678L1034.95 344.281L1031.53 341.077C1027.12 336.932 1028.21 336.426 1017.46 347.59ZM1042.29 365.803C1042.29 366.621 1046.21 367.273 1051.11 367.273C1056.01 367.273 1059.94 366.621 1059.94 365.803C1059.94 364.986 1056.01 364.333 1051.11 364.333C1046.21 364.333 1042.29 364.986 1042.29 365.803ZM1036.4 382.709C1036.4 391.529 1036.84 393.734 1038.61 393.734C1040.03 393.734 1040.82 392.295 1040.84 389.692C1040.88 382.757 1042.98 381.473 1045.03 387.134C1048.49 396.69 1050.75 392.562 1048.74 380.376C1047.93 375.529 1042.92 371.684 1037.4 371.684C1036.85 371.684 1036.4 376.645 1036.4 382.709ZM1088.68 373.664C1085.98 375.638 1086.06 375.835 1090.57 378.166C1094.53 380.214 1095.05 381.052 1093.8 383.391C1092.47 385.878 1093.19 386.434 1100.54 388.571C1111.11 391.639 1116.38 396.671 1115.48 402.813C1114.35 410.504 1131.31 414.901 1137.16 408.435C1141.02 404.177 1142.67 404.67 1152.05 412.875C1162.28 421.821 1165.46 420.631 1157.88 410.7C1154.98 406.904 1152.61 402.86 1152.61 401.711C1152.61 389.517 1115.09 373.698 1106.12 382.112L1102.84 385.192L1100.85 381.744C1099.75 379.85 1098.13 376.976 1097.26 375.359C1095.23 371.622 1092.27 371.037 1088.68 373.664ZM982.688 399.652C981.148 402.143 1004.11 409.638 1013.97 409.863C1022.96 410.068 1008.17 401.639 997.422 400.432C992.567 399.886 987.492 399.122 986.145 398.732C984.798 398.343 983.241 398.757 982.688 399.652ZM1126.19 433.793C1123.3 452.117 1120.81 454.378 1110.49 448.005C1102.41 443.016 1100.85 439.854 1103.44 433.678C1106.18 427.119 1104.86 426.128 1093.34 426.097C1083.93 426.072 1078.62 429.535 1076.77 436.905C1075.84 440.622 1075.81 440.628 1070.09 438.342C1061.79 435.022 1058.68 436.474 1048.09 448.618C1039.74 458.188 1037.46 459.892 1029.05 462.855C1003.54 471.839 1001.83 474.444 1001.83 504.468C1001.83 524.366 1001.58 526.448 998.972 528.362C994.521 531.622 998.058 533.918 1005.75 532.763C1009.26 532.235 1015.35 531.43 1019.28 530.972C1023.21 530.517 1028.64 528.638 1031.35 526.799C1045.89 516.942 1067.12 515.946 1073.26 524.833C1075.12 527.516 1076.83 529.967 1077.07 530.279C1077.3 530.59 1079.15 529.764 1081.17 528.441C1086.17 525.167 1085.98 524.954 1086.7 534.803C1087.6 547.244 1090.08 549.568 1102.46 549.523C1114.97 549.477 1123.32 547.5 1125.16 544.142C1125.97 542.674 1133.36 534.527 1141.59 526.037C1159.24 507.84 1160.49 505.83 1159.27 497.629C1156.38 478.269 1151.9 467.421 1144.31 461.456C1141.3 459.089 1140.36 456.98 1140.16 452.084C1140.01 448.442 1137.92 441.706 1135.22 436.173C1132.65 430.895 1130.54 425.803 1130.54 424.856C1130.54 418.845 1127.59 424.914 1126.19 433.793ZM735.003 438.501C721.794 449.795 720.936 451.163 723.044 457.547C724.453 461.814 724.187 463.37 721.036 469.293C714.404 481.758 723.8 496.382 732.23 486.714C735.513 482.948 749.854 438.636 749.301 433.963C748.58 427.864 746.772 428.439 735.003 438.501ZM1221.93 538.077C1211.08 566.865 1211.06 566.602 1223.64 556.563C1231.83 550.026 1237.1 544.226 1231.97 547.393C1229.47 548.941 1226.16 545.099 1226.16 540.645C1226.16 535.28 1223.57 533.711 1221.93 538.077ZM1183.64 572.802C1162.8 584.751 1160.72 586.763 1168.45 587.507C1174.82 588.12 1205.56 568.245 1205.56 563.515C1205.56 560.3 1205.14 560.479 1183.64 572.802ZM1096.13 565.114C1092.39 574.869 1095.89 575.706 1105.54 567.36L1110.69 562.907L1103.86 562.849C1098.95 562.805 1096.77 563.443 1096.13 565.114Z" fill="#001948" fill-opacity="0.05"/>
</svg>
